<svg width="281" height="260" viewBox="0 0 281 260" fill="none" xmlns="http://www.w3.org/2000/svg">
<path d="M126.918 8.50704C109.96 28.7386 109.155 52.5417 113.275 72.4345C117.45 92.5949 126.694 108.809 129.413 113.385C134.012 121.126 134.297 129.473 131.563 135.948C128.831 142.418 123.088 147.023 115.568 147.343L115.281 147.355L115.147 147.609C112.916 151.824 108.767 156.276 104.042 160.833C102.312 162.502 100.503 164.187 98.6896 165.874C95.5823 168.767 92.4642 171.67 89.7141 174.523C85.3631 179.035 81.8237 183.526 80.6371 187.818C80.039 189.981 80.0338 192.11 80.8347 194.163C81.6337 196.21 83.2162 198.133 85.7089 199.923C90.4775 203.346 92.1331 207.06 91.7445 210.89C91.3501 214.777 88.8411 218.906 84.9849 223.093C77.3251 231.409 64.6136 239.679 53.9203 246.386L36.0593 241.527C43.7935 239.478 53.3589 233.275 60.0155 225.503C67.2486 217.058 71.219 206.537 65.3066 197.373C59.7352 188.739 61.7138 179.438 67.9683 170.066C74.2283 160.686 84.7046 151.351 95.8662 142.792C96.7648 142.103 97.947 141.414 99.3008 140.659C99.5651 140.511 99.8357 140.361 100.111 140.208C101.236 139.585 102.443 138.916 103.647 138.177C106.641 136.339 109.687 134.024 111.555 130.744C115.334 124.104 114.117 113.885 99.3672 96.4759C86.757 79.1337 86.3298 61.6033 89.9034 46.1356C91.6922 38.3928 94.4835 31.1702 97.2542 24.7492C98.2964 22.3341 99.3395 20.0244 100.325 17.8421C101.888 14.3821 103.306 11.2421 104.346 8.50945C104.517 8.5092 104.748 8.50898 105.032 8.50878C105.688 8.50831 106.625 8.50794 107.75 8.50765C110 8.50707 113 8.50682 116 8.50674C119 8.50667 122 8.50676 124.25 8.50688L126.918 8.50704Z" fill="#128AB0" stroke="black"/>
<path d="M190.114 235.051L170.728 237.533C172.373 235.335 173.314 233.223 173.647 231.168C174.03 228.808 173.604 226.567 172.588 224.417C170.57 220.148 166.201 216.193 161.111 212.228C159.23 210.763 157.252 209.297 155.243 207.808C151.768 205.233 148.201 202.589 144.889 199.766C139.675 195.321 135.195 190.507 132.865 184.991C130.56 179.53 131.373 174.944 133.769 170.762C136.185 166.543 140.202 162.751 144.308 158.927C144.415 158.827 144.522 158.728 144.629 158.628C148.603 154.929 152.622 151.188 155.121 147.055C157.711 142.774 158.688 138.044 156.364 132.495L156.352 132.465L156.336 132.437C153.913 128.253 151.177 124.478 148.648 120.99C148.29 120.496 147.936 120.007 147.588 119.524C144.768 115.615 142.334 112.079 140.979 108.666C139.633 105.276 139.367 102.046 140.847 98.718C142.339 95.3636 145.635 91.8397 151.577 87.9528C157.743 83.9195 160.306 76.9284 160.746 68.8495C161.186 60.7688 159.511 51.505 157.098 42.7689C154.683 34.0262 151.521 25.7785 148.964 19.7192C147.685 16.6887 146.556 14.2038 145.747 12.4757C145.349 11.6242 145.028 10.9564 144.804 10.4975L161.211 10.4993C161.266 10.597 161.338 10.7227 161.424 10.8754C161.655 11.2864 161.993 11.8929 162.416 12.6731C163.262 14.2334 164.451 16.4881 165.818 19.2624C168.553 24.8121 172.001 32.4351 174.855 40.7351C177.711 49.0392 179.964 57.9972 180.328 66.2229C180.69 74.439 179.165 81.8536 174.554 87.1773C167.487 93.1448 163.83 98.1435 162.463 102.535C161.084 106.968 162.058 110.713 164.072 114.09C165.773 116.943 168.238 119.564 170.653 122.133C171.071 122.577 171.488 123.02 171.898 123.463C174.71 126.49 177.259 129.49 178.433 132.85C179.559 136.071 178.117 139.806 175.243 143.977C172.93 147.333 169.772 150.858 166.528 154.479C165.761 155.334 164.99 156.195 164.224 157.06C160.238 161.563 156.392 166.185 154.245 170.704C152.088 175.243 151.605 179.768 154.493 183.968C157.28 188.023 161.634 192.224 166.375 196.491C167.792 197.767 169.243 199.048 170.701 200.334C174.139 203.369 177.61 206.433 180.741 209.52C185.201 213.917 188.909 218.304 190.798 222.627C192.646 226.852 192.748 230.989 190.114 235.051Z" fill="#12A7B0" stroke="black"/>
<path d="M28.8506 218.017L21.7517 199.449C22.1 199.476 22.5573 199.509 23.1139 199.545C24.4991 199.634 26.4993 199.74 28.963 199.808C33.8895 199.944 40.6738 199.926 48.1026 199.313C55.5298 198.7 63.6132 197.491 71.1338 195.238C78.6505 192.987 85.6362 189.684 90.8383 184.864C100.999 175.449 115.151 169.73 129.718 166.39C144.278 163.052 159.207 162.101 170.875 162.19C182.563 162.278 188.311 161.864 193.78 159.63C196.508 158.516 199.151 156.955 202.415 154.811C203.989 153.777 205.728 152.592 207.7 151.25C209.794 149.824 212.149 148.22 214.848 146.427C225.256 139.514 240.108 137.881 252.434 138.002C258.584 138.062 264.08 138.559 268.037 139.04C270.016 139.281 271.609 139.517 272.707 139.694C273.256 139.782 273.681 139.855 273.968 139.906C273.978 139.908 273.987 139.91 273.997 139.911L274 157.456C273.793 157.403 273.536 157.339 273.234 157.267C272.327 157.05 271.006 156.762 269.342 156.474C266.014 155.897 261.312 155.317 255.808 155.304C244.803 155.277 230.559 157.514 217.691 166.603L217.656 166.627L217.626 166.658C217.484 166.799 217.344 166.94 217.205 167.079C211.695 172.597 208.381 175.917 203.391 177.931C198.262 180.001 191.324 180.703 178.374 180.805C165.365 180.907 148.346 184.219 133.028 188.7C117.727 193.177 104.024 198.848 97.693 203.716C86.7457 212.133 69.4958 215.721 54.8989 217.19C47.6149 217.923 41.0193 218.126 36.2446 218.145C33.8575 218.155 31.9264 218.119 30.5929 218.08C29.9262 218.061 29.4089 218.041 29.0588 218.026C28.9811 218.023 28.9116 218.02 28.8506 218.017Z" fill="#89A4A6" stroke="black"/>
<path d="M11.4458 100.916L11.5176 100.542L12.0837 97.5965C12.5523 95.159 13.1773 91.9088 13.8024 88.6587L15.5216 79.7209L16.0883 76.7758L16.2471 75.951L16.2804 75.7785C18.8917 72.4719 21.4446 71.0106 23.959 70.8471C26.5114 70.6812 29.1571 71.8425 31.9456 74.0659C37.5375 78.5247 43.4125 87.0113 49.8367 96.351L50.0936 96.7245C56.4203 105.923 63.255 115.86 70.7942 123.315C78.4317 130.867 86.8837 135.962 96.3555 135.065L96.404 135.061L96.4507 135.047C113.694 129.924 124.492 128.773 130.944 130.173C134.151 130.869 136.244 132.188 137.54 133.926C138.84 135.669 139.385 137.897 139.369 140.502C139.338 145.737 137.049 152.292 134.442 158.923C133.954 160.165 133.455 161.409 132.958 162.646C130.822 167.967 128.739 173.16 127.817 177.462C125.541 188.082 127.818 202.366 130.632 213.932C132.042 219.727 133.593 224.864 134.791 228.552C135.39 230.396 135.901 231.878 136.263 232.9C136.376 233.219 136.474 233.492 136.555 233.718L110.23 230.613C110.192 230.403 110.138 230.102 110.073 229.718C109.934 228.903 109.741 227.714 109.527 226.222C109.099 223.239 108.584 219.048 108.242 214.219C107.556 204.549 107.56 192.365 110.288 182.196C111.559 177.46 113.395 172.828 115.088 168.557C115.215 168.236 115.341 167.918 115.466 167.602C117.248 163.097 118.824 158.986 119.24 155.692C119.448 154.038 119.373 152.538 118.847 151.274C118.313 149.993 117.336 149.003 115.843 148.351C114.366 147.706 112.391 147.393 109.836 147.422C107.277 147.451 104.105 147.823 100.213 148.577L100.173 148.584L100.134 148.599C87.5475 153.289 78.5585 152.049 71.4306 147.788C64.2587 143.501 58.9043 136.121 53.6798 128.362C53.1315 127.548 52.5845 126.729 52.037 125.91C47.3945 118.961 42.7141 111.956 36.8249 107.02C30.3446 101.589 22.3959 98.6543 11.4458 100.916Z" fill="#F5F06F" stroke="black"/>
</svg>
