<svg width="812" height="823" viewBox="0 0 812 823" fill="none" xmlns="http://www.w3.org/2000/svg">
<path d="M37.5738 710.97C42.5252 695.695 47.9226 685.805 52.7206 681.066C52.8019 681.026 53.7796 680.34 56.3716 679.292C59.5037 678.026 63.8948 676.664 69.6518 675.302C81.1532 672.58 96.4822 670.231 114.709 668.342C151.064 664.574 197.056 662.823 242.969 663.014C288.884 663.205 334.131 665.337 368.99 669.197C386.49 671.134 400.828 673.45 411.137 676.01C416.321 677.298 419.928 678.513 422.196 679.516C422.447 679.628 422.667 679.729 422.856 679.821C425.283 684.089 428.353 693.07 431.086 707.277C433.976 722.296 435.965 740.095 437.312 757.451C438.642 774.591 439.316 790.894 439.656 803H21.3889C22.3738 791.417 23.9736 776.203 26.4906 760.164C29.1549 743.186 32.77 725.789 37.5738 710.97ZM423.862 680.367C423.861 680.367 423.836 680.351 423.79 680.319C423.841 680.35 423.863 680.366 423.862 680.367Z" stroke="#6081C9" stroke-width="40"/>
<circle cx="230.5" cy="519.5" r="94.5" stroke="#6081C9" stroke-width="40"/>
<rect x="433.103" y="444.091" width="105.418" height="477.378" transform="rotate(-128.956 433.103 444.091)" fill="#E9CD3E" stroke="black" stroke-width="10"/>
<rect x="433.763" y="443.557" width="33.3907" height="474.572" transform="rotate(-128.956 433.763 443.557)" fill="#FCE364" stroke="black" stroke-width="10"/>
<rect x="389.321" y="388.554" width="34.1095" height="475.052" transform="rotate(-128.956 389.321 388.554)" fill="#CEB431" stroke="black" stroke-width="10"/>
<path d="M428.73 444.492L300.808 469.957L364.703 367.274L428.73 444.492Z" fill="#FCF3C3" stroke="black" stroke-width="10"/>
<path d="M302.236 471.064L337.221 415.616L367.27 462.751L302.236 471.064Z" fill="black"/>
</svg>
