<svg width="816" height="1027" viewBox="0 0 816 1027" fill="none" xmlns="http://www.w3.org/2000/svg">
<rect x="152.682" y="10" width="510.636" height="326" fill="white" stroke="#6081C9" stroke-width="20"/>
<line x1="231.121" y1="90" x2="584.879" y2="90" stroke="#6081C9" stroke-width="20"/>
<line x1="231.121" y1="164" x2="584.879" y2="164" stroke="#6081C9" stroke-width="20"/>
<line x1="231.121" y1="254" x2="584.879" y2="254" stroke="#6081C9" stroke-width="20"/>
<rect y="314" width="816" height="313" fill="#6081C9"/>
<ellipse cx="744.5" cy="552" rx="32.5" ry="31" fill="white"/>
<line x1="744.999" y1="531.081" x2="744.352" y2="571.081" stroke="#6081C9" stroke-width="10"/>
<rect x="34.1965" y="376" width="48.3468" height="38" fill="white"/>
<rect x="34.1965" y="452" width="48.3468" height="38" fill="white"/>
<path d="M103.045 976.417L29.8746 972.22C30.3762 969.131 31.0362 965.232 31.8591 960.699C34.0273 948.755 37.3182 932.454 41.8103 914.992C46.309 897.505 51.9738 879.007 58.8569 862.613C65.8026 846.07 73.7089 832.359 82.3847 823.851C93.676 812.778 100.889 795.637 105.66 777.385C110.489 758.911 113.087 738.203 114.434 718.965C115.784 699.687 115.893 681.659 115.666 668.465C115.577 663.298 115.437 658.862 115.299 655.373L188.71 659.583C188.949 662.595 189.224 666.628 189.451 671.476C189.977 682.745 190.237 698.363 189.175 715.759C187.029 750.936 179.557 791.836 159.389 819.294C136.966 849.824 122.686 891.128 114.015 924.222C109.653 940.872 106.659 955.655 104.753 966.282C104.035 970.286 103.47 973.705 103.045 976.417Z" fill="white" stroke="#6081C9" stroke-width="15"/>
<path d="M610.14 673.277L681.809 652.217C682.765 655.238 683.952 659.082 685.281 663.58C688.733 675.267 693.129 691.332 696.919 708.868C700.716 726.429 703.871 745.317 704.898 762.691C705.934 780.22 704.751 795.492 700.427 806.259C694.823 820.213 695.875 838.349 699.763 856.694C703.699 875.259 710.782 895.117 718.377 913.207C725.988 931.334 734.201 947.894 740.503 959.91C743.003 964.677 745.207 968.738 746.959 971.908L675.059 993.036C673.435 990.346 671.292 986.709 668.812 982.291C663.111 972.136 655.655 957.902 648.635 941.589C634.44 908.608 622.654 868.548 629.148 836.494C636.357 800.916 630.867 758.222 623.834 724.945C620.296 708.204 616.321 693.639 613.228 683.252C612.047 679.285 610.993 675.923 610.14 673.277Z" fill="white" stroke="#6081C9" stroke-width="15"/>
<path d="M422.573 974.709C421.916 975.97 421.319 977.072 420.802 978H347.472C349.531 972.25 352.175 964.487 354.754 955.829C360.053 938.043 365.481 915.207 364.183 898.422C363.025 883.441 363.111 874.78 366.19 864.225C369.397 853.229 375.923 839.923 388.674 816.031L388.973 815.472L389.173 814.871C391.983 806.44 389.893 799.113 386.246 792.775C383.59 788.159 379.685 783.407 375.903 778.804C374.899 777.582 373.903 776.371 372.942 775.176C363.399 763.307 353.535 748.9 353.001 725.33C352.441 700.642 358.316 681.388 364.264 668.366C367.241 661.849 370.236 656.896 372.448 653.616C372.994 652.808 373.491 652.102 373.928 651.5H444.165C442.736 653.967 441.237 656.807 439.741 660.032C433.181 674.173 426.748 695.597 426.443 725.423C426.13 755.889 434.507 773.879 442.941 787.716C444.616 790.463 446.151 792.842 447.569 795.039C449.847 798.568 451.821 801.628 453.582 804.988C456.09 809.775 457.576 814.222 457.684 819.392C455.429 832.302 452.751 840.571 450.217 846.344C448.039 851.303 445.938 854.534 443.834 857.766C443.443 858.368 443.051 858.971 442.659 859.584C440.07 863.632 437.6 868.003 436.556 874.667C435.563 881 435.927 888.918 437.74 900.191C440.992 920.42 436.404 940.658 430.731 956.174C427.915 963.874 424.888 970.262 422.573 974.709Z" fill="white" stroke="#6081C9" stroke-width="15"/>
<rect x="498.043" y="694.5" width="73.4393" height="325" fill="white" stroke="#6081C9" stroke-width="15"/>
<rect x="222.113" y="694.5" width="73.4393" height="325" fill="white" stroke="#6081C9" stroke-width="15"/>
</svg>
