<svg width="816" height="1027" viewBox="0 0 816 1027" fill="none" xmlns="http://www.w3.org/2000/svg">
<rect x="152.682" y="10" width="510.636" height="326" rx="20" stroke="#6081C9" stroke-width="20"/>
<line x1="231.121" y1="90" x2="584.879" y2="90" stroke="#6081C9" stroke-width="20"/>
<line x1="231.121" y1="164" x2="584.879" y2="164" stroke="#6081C9" stroke-width="20"/>
<line x1="231.121" y1="254" x2="584.879" y2="254" stroke="#6081C9" stroke-width="20"/>
<rect y="314" width="816" height="313" rx="40" fill="#6081C9"/>
<ellipse cx="744.5" cy="552" rx="32.5" ry="31" fill="white"/>
<line x1="744.999" y1="531.081" x2="744.352" y2="571.081" stroke="#6081C9" stroke-width="10"/>
<rect x="34.1965" y="376" width="48.3468" height="38" fill="white"/>
<rect x="34.1965" y="452" width="48.3468" height="38" fill="white"/>
<path d="M118.339 655.547L186.794 659.473C188.046 659.545 188.776 660.411 188.843 661.319C189.818 674.515 191.09 702.477 187.697 733.096C184.28 763.923 176.244 796.347 159.389 819.294C141.054 844.258 128.199 876.367 119.401 905.193C110.572 934.126 105.663 960.32 103.461 973.816C103.212 975.343 101.86 976.349 100.524 976.272L32.3951 972.364C30.8801 972.277 30.0644 971.051 30.2604 969.875C32.7684 954.823 38.2492 925.499 47.0477 896.115C51.4469 881.424 56.6329 866.863 62.6226 854.132C68.6535 841.313 75.2858 830.813 82.3847 823.851C91.6985 814.718 98.187 801.512 102.825 787.14C107.501 772.647 110.52 756.25 112.458 740.052C116.333 707.649 115.978 675.165 115.413 658.471C115.355 656.78 116.788 655.458 118.339 655.547Z" stroke="#6081C9" stroke-width="15"/>
<path d="M744.039 972.766L676.901 992.495C675.705 992.846 674.621 992.311 674.141 991.507C667.158 979.803 653.023 954.588 642.088 925.324C631.08 895.862 623.712 863.326 629.148 836.494C635.054 807.346 632.43 773.484 627.467 744.035C622.486 714.477 615.046 688.792 610.929 675.75C610.471 674.3 611.269 672.945 612.562 672.565L679.386 652.929C680.847 652.499 682.163 653.334 682.513 654.457C687.056 669.029 695.403 697.802 700.626 727.786C703.237 742.778 705.042 757.927 705.233 771.671C705.426 785.51 703.972 797.431 700.427 806.259C695.796 817.79 695.731 832.109 697.97 846.882C700.227 861.778 704.943 877.861 710.593 893.391C721.897 924.457 737.25 954.133 745.45 969.16C746.267 970.657 745.537 972.326 744.039 972.766Z" stroke="#6081C9" stroke-width="15"/>
<path d="M374.789 651.5H434.44C435.209 651.5 436.885 652.122 438.308 654.758C439.72 657.373 439.74 660.01 439.101 661.436C432.767 675.581 426.738 696.572 426.443 725.423C426.134 755.567 434.33 773.502 442.686 787.296C444.465 790.233 446.077 792.729 447.562 795.028C449.713 798.359 451.597 801.274 453.333 804.519C455.989 809.482 457.557 814.025 457.683 819.308C457.682 819.312 457.682 819.335 457.678 819.378C457.674 819.436 457.665 819.504 457.653 819.57C455.368 832.585 452.653 840.863 450.093 846.624C447.959 851.426 445.909 854.578 443.847 857.746C443.425 858.395 443.003 859.044 442.579 859.709C439.999 863.754 437.564 868.122 436.54 874.769C435.567 881.083 435.936 888.976 437.74 900.191C442.988 932.827 427.808 965.203 421.254 977.18C421.04 977.572 420.524 978 419.617 978H351.43C349.719 978 348.15 976.107 348.846 974.104C352.121 964.684 356.351 951.509 359.563 937.955C362.735 924.567 365.087 910.121 364.183 898.422C363.03 883.518 363.111 874.874 366.139 864.399C369.292 853.495 375.712 840.34 388.269 816.791C388.697 815.988 389.184 814.933 389.526 813.727C391.891 805.404 389.522 798.242 385.855 792.108C383.243 787.74 379.507 783.192 375.869 778.763C374.757 777.409 373.653 776.065 372.594 774.742C363.168 762.965 353.529 748.62 353.001 725.33C352.108 685.965 367.59 660.366 373.623 651.924C373.685 651.837 373.777 651.748 373.945 651.668C374.125 651.581 374.409 651.5 374.789 651.5Z" stroke="#6081C9" stroke-width="15"/>
<mask id="path-13-inside-1" fill="white">
<rect x="490.543" y="687" width="88.4393" height="340" rx="10"/>
</mask>
<rect x="490.543" y="687" width="88.4393" height="340" rx="10" stroke="#6081C9" stroke-width="30" mask="url(#path-13-inside-1)"/>
<mask id="path-14-inside-2" fill="white">
<rect x="214.613" y="687" width="88.4393" height="340" rx="10"/>
</mask>
<rect x="214.613" y="687" width="88.4393" height="340" rx="10" stroke="#6081C9" stroke-width="30" mask="url(#path-14-inside-2)"/>
</svg>
