<svg width="485" height="336" viewBox="0 0 485 336" fill="none" xmlns="http://www.w3.org/2000/svg">
<path d="M460.864 2.5H24.864C12.9899 2.5 3.36401 12.1259 3.36401 24V312C3.36401 323.874 12.9899 333.5 24.864 333.5H460.864C472.738 333.5 482.364 323.874 482.364 312V24C482.364 12.1259 472.738 2.5 460.864 2.5Z" fill="#EDC766" stroke="black" stroke-width="5"/>
<path d="M476.864 322.5L271.864 196.5L479.864 29.5C479.864 29.5 481.364 305 479.864 314.5C478.364 324 476.864 322.5 476.864 322.5Z" fill="#C7A346"/>
<path d="M476.864 325L236.362 177.811" stroke="black" stroke-width="5"/>
<path d="M3.86401 24.9999L238.864 222" stroke="black" stroke-width="5"/>
<path d="M236.364 222L481.864 25" stroke="black" stroke-width="5"/>
<path d="M238.362 178.311L8.86407 326.39" stroke="black" stroke-width="5"/>
<path d="M197.591 147.743H174.446C174.446 147.743 158.975 43 245.373 43C331.771 43 316.3 147.743 316.3 147.743H291.663C291.663 147.743 306.491 63.8143 245.373 63.8143C184.255 63.8143 197.591 147.743 197.591 147.743Z" fill="#C4C4C4" stroke="black" stroke-width="3"/>
<path d="M312.864 145.214H174.864C167.96 145.214 162.364 150.81 162.364 157.714V264C162.364 270.904 167.96 276.5 174.864 276.5H312.864C319.768 276.5 325.364 270.904 325.364 264V157.714C325.364 150.81 319.768 145.214 312.864 145.214Z" fill="#3CA7E2" stroke="black" stroke-width="3"/>
<path d="M314.5 147H247V275H315C315 275 318.5 274 321 271C323.5 268 323.5 264.5 323.5 264.5V157C323.5 157 323 153 321 150.5C319 148 314.5 147 314.5 147Z" fill="#146693" stroke="black"/>
<path d="M264.991 194.743C264.991 200.463 261.643 205.752 257.446 209.514C253.208 213.312 275.555 239.057 243.864 239.057C212.173 239.057 234.52 213.312 230.282 209.514C226.085 205.752 222.737 200.463 222.737 194.743C222.737 183.247 230.946 175.943 243.864 175.943C256.783 175.943 264.991 183.247 264.991 194.743Z" fill="black"/>
<path d="M245.364 145V278" stroke="black" stroke-width="3"/>
</svg>
