<svg width="492" height="348" viewBox="0 0 492 348" fill="none" xmlns="http://www.w3.org/2000/svg">
<rect x="8.36404" y="2.5" width="479" height="331" rx="21.5" fill="#EDC766" stroke="black" stroke-width="5"/>
<path d="M481.864 322.5L276.864 196.5L484.864 29.5C484.864 29.5 486.364 305 484.864 314.5C483.364 324 481.864 322.5 481.864 322.5Z" fill="#C7A346"/>
<path d="M481.864 325L241.362 177.811" stroke="black" stroke-width="5"/>
<path d="M8.86404 24.9999L243.864 222" stroke="black" stroke-width="5"/>
<path d="M241.364 222L486.864 25" stroke="black" stroke-width="5"/>
<path d="M243.362 178.311L13.8641 326.39" stroke="black" stroke-width="5"/>
<path d="M202.591 147.743H179.446C179.446 147.743 163.975 43 250.373 43C336.771 43 321.3 147.743 321.3 147.743H296.663C296.663 147.743 311.491 63.8143 250.373 63.8143C189.255 63.8143 202.591 147.743 202.591 147.743Z" fill="#C4C4C4" stroke="black" stroke-width="3"/>
<rect x="167.364" y="145.214" width="163" height="131.286" rx="12.5" fill="#3CA7E2" stroke="black" stroke-width="3"/>
<path d="M319.5 147H252V275H320C320 275 323.5 274 326 271C328.5 268 328.5 264.5 328.5 264.5V157C328.5 157 328 153 326 150.5C324 148 319.5 147 319.5 147Z" fill="#146693" stroke="black"/>
<path d="M269.991 194.743C269.991 200.463 266.643 205.752 262.446 209.514C258.208 213.312 280.555 239.057 248.864 239.057C217.173 239.057 239.52 213.312 235.282 209.514C231.085 205.752 227.737 200.463 227.737 194.743C227.737 183.247 235.946 175.943 248.864 175.943C261.783 175.943 269.991 183.247 269.991 194.743Z" fill="black"/>
<line x1="250.364" y1="145" x2="250.364" y2="278" stroke="black" stroke-width="3"/>
</svg>
