<svg width="409" height="356" viewBox="0 0 409 356" fill="none" xmlns="http://www.w3.org/2000/svg">
<path d="M37.3101 33.4412L44.173 19.2892C44.3695 19.4511 44.6235 19.6608 44.9317 19.9161C45.7451 20.5898 46.9365 21.5814 48.4474 22.8522C51.4692 25.394 55.7692 29.0526 60.8807 33.5194C71.1045 42.4536 84.5715 54.6179 97.55 67.5423C110.533 80.471 123.009 94.1429 131.264 106.094C135.392 112.072 138.447 117.593 139.989 122.358C141.528 127.115 141.53 131.019 139.721 133.882C133.61 140.824 130.727 146.307 130.022 150.852C129.31 155.439 130.824 159 133.313 162.044C135.416 164.615 138.24 166.846 141.006 169.031C141.485 169.409 141.962 169.786 142.433 170.163C145.659 172.744 148.623 175.336 150.278 178.487C151.865 181.507 150.989 185.413 148.76 189.962C146.966 193.622 144.361 197.573 141.685 201.632C141.053 202.591 140.417 203.555 139.786 204.524C136.505 209.564 133.382 214.702 131.923 219.488C130.457 224.294 130.645 228.841 134.12 232.571C135.653 234.217 136.499 236.998 136.71 240.761C136.921 244.507 136.499 249.136 135.589 254.383C133.768 264.874 130.008 277.747 125.551 290.779C116.855 316.207 105.531 342.171 100.883 352.077L86.4018 334.658C93.1831 323.471 102.923 304.409 109.438 285.51C112.725 275.974 115.198 266.46 116.049 258.009C116.898 249.572 116.14 242.117 112.878 236.764C109.794 231.702 109.924 227.046 111.678 222.558C113.447 218.029 116.863 213.687 120.362 209.301L120.635 208.959C124.021 204.715 127.446 200.423 129.31 195.967C131.242 191.352 131.512 186.529 128.397 181.382L128.381 181.355L128.361 181.33C125.349 177.548 122.086 174.216 119.072 171.138C118.645 170.702 118.223 170.271 117.808 169.844C114.444 166.393 111.516 163.253 109.673 160.077C107.843 156.922 107.105 153.766 108.08 150.257C109.062 146.719 111.803 142.749 117.108 138.03C119.949 135.503 120.704 131.895 119.955 127.646C119.208 123.412 116.96 118.468 113.693 113.124C107.157 102.428 96.4483 89.9794 85.0978 78.1494C73.7418 66.3136 61.7206 55.0741 52.5402 46.795C47.9495 42.655 44.0683 39.2544 41.3343 36.8885C39.9674 35.7056 38.8872 34.7813 38.1486 34.1525C37.7834 33.8417 37.5017 33.6031 37.3101 33.4412Z" fill="#12A7B0" stroke="black"/>
<path d="M247 14L258.5 31C258.5 31 212 98.5 210.5 126C209 153.5 239 170 231.5 195C224 220 192.5 246.5 196 264.5C199.5 282.5 212 327.5 212 327.5H192C192 327.5 180.5 283 176 264.5C171.5 246 199 219.5 201.5 203C204 186.5 199.5 167 188 133C183.5 99 247 14 247 14Z" stroke="black" stroke-dasharray="3 3"/>
<path d="M400.529 190.669L400.529 190.669L400.529 190.669ZM400.63 190.972C400.686 191.139 400.762 191.368 400.856 191.653C401.066 192.287 401.365 193.193 401.724 194.28C402.441 196.455 403.398 199.355 404.354 202.254C405.31 205.154 406.266 208.054 406.983 210.229L407.847 212.85C393.07 207.269 374.654 205.898 355.182 207.093C335.267 208.315 314.205 212.226 294.727 217.103C275.247 221.981 257.339 227.828 243.727 232.932C236.921 235.483 231.186 237.85 226.863 239.818C224.702 240.802 222.89 241.688 221.471 242.449C220.062 243.205 219.015 243.852 218.403 244.36C210.611 250.823 202.596 253.244 194.675 252.576C186.738 251.908 178.84 248.135 171.312 242.11L171.269 242.075L171.219 242.051C168.201 240.578 164.763 238.759 161.065 236.801C152.278 232.149 142.016 226.718 132.4 223.308C125.562 220.884 118.975 219.451 113.41 220.067C107.807 220.688 103.243 223.391 100.546 229.177C99.2692 231.917 97.6708 233.845 95.8253 235.111C93.9812 236.376 91.8605 237.001 89.5045 237.091C84.7693 237.272 79.1134 235.289 72.9942 232.023C63.3578 226.88 52.7663 218.668 43.1066 211.18C40.5736 209.216 38.1046 207.302 35.7338 205.506L35.7339 179.278C40.4861 186.643 50.8282 197.333 62.1583 204.724C68.2326 208.686 74.629 211.726 80.6347 212.781C86.6524 213.839 92.3167 212.908 96.8329 208.873C105.414 201.206 117.464 199.55 130.872 201.993C144.277 204.434 158.958 210.961 172.685 219.54C173.799 220.236 175 221.206 176.33 222.32C176.59 222.538 176.856 222.762 177.125 222.989C178.226 223.916 179.406 224.91 180.667 225.883C183.812 228.306 187.516 230.637 191.972 231.591C200.938 233.51 212.661 229.806 228.715 211.056C237.003 202.769 250.397 197.22 266.276 193.612C282.15 190.005 300.438 188.351 318.433 187.806C351.075 186.815 382.693 189.469 397.091 190.678C398.422 190.789 399.606 190.889 400.63 190.972Z" fill="#128AB0" stroke="black"/>
</svg>
